<?xml version="1.0" encoding="utf-8"?>
<!-- Generator: Adobe Illustrator 16.0.0, SVG Export Plug-In . SVG Version: 6.00 Build 0)  -->
<!DOCTYPE svg PUBLIC "-//W3C//DTD SVG 1.1//EN" "http://www.w3.org/Graphics/SVG/1.1/DTD/svg11.dtd">
<svg version="1.1" id="Layer_1" xmlns="http://www.w3.org/2000/svg" xmlns:xlink="http://www.w3.org/1999/xlink" x="0px" y="0px"
	 width="400.375px" height="88.563px" viewBox="0 0 400.375 88.563" enable-background="new 0 0 400.375 88.563"
	 xml:space="preserve">
<g>
	<g>
		<path opacity="0.7" fill="#FFFFFF" d="M395,49c0,19.33-15.67,35-35,35H40C20.67,84,5,68.33,5,49v-9C5,20.67,20.67,5,40,5h320
			c19.33,0,35,15.67,35,35V49z"/>
		<path d="M360,10c16.542,0,30,13.458,30,30v8.563C390,65.104,376.917,79,360.375,79H40c-16.542,0-30-13.896-30-30.438V40
			c0-16.542,13.458-30,30-30H360 M360.375,0H40C17.909,0,0,17.908,0,40v8.563C0,70.654,17.909,89,40,89h320.375
			C382.467,89,400,70.654,400,48.563V40c0-22.092-17.721-40-39.813-40H360.375z"/>
	</g>
	<g>
		<path d="M77.961,31.123v9.625h14.574v5.715H77.961v16.68H71.59V25.299h23.625v5.824H77.961z"/>
		<path d="M131.254,44.221c0,3.1-0.296,5.865-0.889,8.299c-0.593,2.434-1.531,4.498-2.816,6.193s-2.931,2.99-4.936,3.883
			c-2.005,0.893-4.412,1.34-7.219,1.34c-2.808,0-5.209-0.447-7.205-1.34s-3.637-2.188-4.922-3.883s-2.229-3.76-2.83-6.193
			s-0.902-5.199-0.902-8.299c0-3.099,0.301-5.869,0.902-8.313c0.602-2.442,1.545-4.507,2.83-6.193
			c1.285-1.686,2.926-2.976,4.922-3.869c1.996-0.893,4.397-1.34,7.205-1.34c2.807,0,5.213,0.442,7.219,1.326
			c2.005,0.885,3.65,2.17,4.936,3.855c1.285,1.687,2.224,3.751,2.816,6.193C130.958,38.324,131.254,41.104,131.254,44.221z
			 M124.582,44.221c0-2.352-0.164-4.406-0.492-6.166c-0.328-1.759-0.857-3.222-1.586-4.389c-0.729-1.166-1.677-2.041-2.844-2.625
			c-1.167-0.583-2.589-0.875-4.266-0.875c-1.695,0-3.131,0.292-4.307,0.875c-1.176,0.584-2.128,1.459-2.857,2.625
			c-0.729,1.167-1.258,2.63-1.586,4.389c-0.328,1.76-0.492,3.814-0.492,6.166s0.164,4.407,0.492,6.166
			c0.328,1.76,0.861,3.223,1.6,4.389c0.738,1.167,1.695,2.042,2.871,2.625c1.176,0.584,2.602,0.875,4.279,0.875
			c1.677,0,3.099-0.287,4.266-0.861c1.167-0.574,2.114-1.444,2.844-2.611c0.729-1.166,1.258-2.629,1.586-4.389
			C124.418,48.655,124.582,46.591,124.582,44.221z"/>
		<path d="M159.855,63.143L150.23,48.24h-5.277v14.902h-6.371V25.299h12.77c2.26,0,4.243,0.196,5.947,0.588
			c1.704,0.393,3.122,1.021,4.252,1.887c1.13,0.866,1.978,1.996,2.543,3.391c0.565,1.395,0.848,3.095,0.848,5.1
			c0,1.787-0.196,3.327-0.588,4.621c-0.392,1.295-0.939,2.389-1.641,3.281c-0.702,0.894-1.536,1.6-2.502,2.119
			c-0.966,0.52-2.015,0.898-3.145,1.135l10.172,15.723H159.855z M158.406,36.592c0-1.111-0.137-2.032-0.41-2.762
			c-0.273-0.729-0.697-1.313-1.271-1.75s-1.313-0.747-2.215-0.93c-0.902-0.182-1.974-0.273-3.213-0.273h-6.344v11.758h5.988
			c1.44,0,2.639-0.104,3.596-0.314c0.957-0.209,1.723-0.551,2.297-1.025c0.574-0.474,0.979-1.094,1.217-1.859
			C158.288,38.67,158.406,37.723,158.406,36.592z"/>
		<path d="M187.582,31.123v32.02h-6.398v-32.02h-12.086v-5.824h30.57v5.824H187.582z"/>
		<path d="M205.273,63.143V25.299h23.844v5.688h-17.473v9.598h14.848v5.715h-14.848v11.02h17.473v5.824H205.273z"/>
		<path d="M233.328,63.143l12.441-18.977l-12.113-18.867h7.355l8.395,13.863l8.668-13.863h7.109l-12.25,18.703l12.195,19.141h-7.273
			l-8.668-14.109l-8.805,14.109H233.328z"/>
		<path d="M285.965,63.143h-16.871v-5.141h5.223V30.439h-5.223v-5.141h16.871v5.141h-5.277v27.563h5.277V63.143z"/>
		<path d="M322.633,63.143V34.76l-9.734,18.402h-3.828l-9.68-18.402v28.383h-6.098V25.299h7.848l9.953,19.305l10.035-19.305h7.656
			v37.844H322.633z"/>
	</g>
</g>
</svg>
